<mxfile host="65bd71144e">
    <diagram id="QplJb2tJHUK9_ElwjDM1" name="Page-1">
        <mxGraphModel dx="806" dy="478" grid="1" gridSize="10" guides="1" tooltips="1" connect="1" arrows="1" fold="1" page="1" pageScale="1" pageWidth="850" pageHeight="1100" math="0" shadow="0">
            <root>
                <mxCell id="0"/>
                <mxCell id="1" parent="0"/>
                <mxCell id="2" value="" style="rounded=0;whiteSpace=wrap;html=1;" vertex="1" parent="1">
                    <mxGeometry x="30" y="70" width="670" height="420" as="geometry"/>
                </mxCell>
                <mxCell id="3" style="edgeStyle=orthogonalEdgeStyle;rounded=0;orthogonalLoop=1;jettySize=auto;html=1;entryX=0;entryY=0.5;entryDx=0;entryDy=0;" edge="1" parent="1" source="4" target="6">
                    <mxGeometry relative="1" as="geometry"/>
                </mxCell>
                <mxCell id="4" value="Frontend" style="rounded=0;whiteSpace=wrap;html=1;" vertex="1" parent="1">
                    <mxGeometry x="60" y="245" width="120" height="60" as="geometry"/>
                </mxCell>
                <mxCell id="5" style="edgeStyle=orthogonalEdgeStyle;rounded=0;orthogonalLoop=1;jettySize=auto;html=1;" edge="1" parent="1" source="6" target="9">
                    <mxGeometry relative="1" as="geometry"/>
                </mxCell>
                <mxCell id="6" value="Backend Python API's" style="rounded=0;whiteSpace=wrap;html=1;" vertex="1" parent="1">
                    <mxGeometry x="270" y="130" width="180" height="290" as="geometry"/>
                </mxCell>
                <mxCell id="8" value="" style="shape=image;verticalLabelPosition=bottom;labelBackgroundColor=#ffffff;verticalAlign=top;aspect=fixed;imageAspect=0;image=data:image/png,iVBORw0KGgoAAAANSUhEUgAAATYAAACjCAMAAAA3vsLfAAAAkFBMVEX///9AAJk8AJfo3/NhOaj28/s2AJWcgsj9+/77+P0tAJJmP6t1UrPZy+rd0uyul9KYfcWynNRjNKvNv+NXI6Xe1uy/q9vEtN6mjs1GCp3JuuHt5vb07/rp4fPBsN2CYbqTdsNMFp+iiMtiNqqNcMBtRa9XH6WFZby2o9Z5VbV0TrNfLqpLAKBSE6OLar+UeMMTRPHVAAAG10lEQVR4nO2di3aiOhhGJcgv4KhUpYp4Q4v10inv/3YnCZfSIcFzOLR29NtrVh1NZK1sA7knnQ4AAAAAAAAAAAAAAAAA8O8I/WFL+OGt0/JdhKM4MlojikcPYW49Jcba08YYTde3TtPXM2rTWW5udOtUfTUzaY21iLzc7Nbp+lqWB5FMCrr9lugGJLwdlrdO2ZfyJBP56ltOW/iv8od4unXKvpSYp5E2dpuXtDf8p2Bxm5f8aTiGyBp+uxf1RQY2nHYv+qMIRQrHLT+HlmPxW9xz5c3kCWRdq92LWl1xVbPdi/4ooK0R0NYIaGsEtDVCo23pmym+tpCtifKw2np56560bXKviFJpDzyuNrqmze5n2pg7+TMM2rTawqKTyKj4gTattuc8huLb0KbV9lrESCph0KbTFr4VJcKiEghtOm3H4h6dVqso0KbR5vSLzLarhkKbRtuiyGyqvjpoU2uzz0X4iyIY2tTaSpltpQiGNqU2qUXizlUXhTaltlGR2cbKAQNoU2nzg7w5SkPlRaFNoc055YGuZiwU2hTadq5LEldVigqgTaHNL9CNhEKbvpuyBmiDNiXQ1ghoawS0NQLaGgFtjWigzb46hxDaPrRZ/my+PV/eDMaM32dvVjMnDtpSbeGit38T7al0Ijj/Q2Rs1O34DrSJmQrOoNc1qLrgg5t71+Q4aGPjKSPdcg86oOPoE4U2o3aJDDMGqotC2xVYoJpkDm3XoFjRewRt170penihTXFffn7aYTJDCZU2UVnjhWoQRUa5cKVj5aLQ9qGMBfuTtx4MzdXKnyRB4Y39qjS2oE2KIQri3cwsP/yHl9wbCyoD89AmnEWbWXX91LDIboS5uzm5Nsabngt1E+qEmeIabeRejtqOjl3RbK3McHtkbfzuPCmbThnFRBDq/Rn0wNrI2NYvzoW2qrbkbX5tFS20VbXpl1oVQFujFX7QBm3/FWhrBLQ1AtoaAW2N0Gh7Vi03+Ay0Kaq706v790CbonHlRnXtUQG0qdqkzKiuE/0EtGl6QKqDBGWgTdPf5lZ8lIE2XTel+17zTWjTdorTSV+jgzb9WALF2m43aKub33bRVeCgrW5+m3YDXWirGfALKoOgOdCmLxKm2vm50KYfJ93XtOihTaON4rqBGGhTa6NN7YbD0KZsyit2yvoEtClH5ZU7fJSANpW2+u6PDrQptV0/JWLu5lTu5ofV9i8OAlgWZw1Vmq0Pq+3/AW2NgLZGQFsjoK0R968Nh5o0AkfoNEPsBEsv7R7Y9CIObOq3eckfh2wjsW1ot0a4FRm40QYifw/LSCbyLf7VEvGb/CGi+z6MrnOUixzbPvrwelfA305Pu/NCY1i1V+T+eDLaFcfIuO9zDzNC70Bua9DBu+cqWxk7HA5aYhi2WpsBAAAAAADge7Gdh6/QLhMvESPwzjxJ5KyPSeKlyI0Z/K34b2+0KEYb7Mk27p9GWfPJ2SXJE5d4TLztmr8f8Fcxk3Cx9ZJ77jkyiVyPv1oX172ID0bZGRLkisVDi/xEiShbSrQ6uyT3QU0b69Zvcs9OZ8FjyA3Jnl1yhb4d/949D8GYLJ36Yu0ZG4sPnkjua5Rpm6TvWH4M2PIi91Xhf1zZe2tNGfvVWUWM/ZaWnskgkXnndN8jVypt7H3O2Ylkc22UHEcxjyVv4S1/358NdmKnTxEutJ2sM+V7ez6aNrv7oY0+1kRybeKw2+WB0Ya/XXJdY/GYO1K6tZHUlvA3z2n8B9LG4t1u1zuUctt8MpmkY4CZtjBi9J6+TffPsrLoXJsR8Ps4n0P4QNrSRxnXV362ZavUhKeX43zP0r0URSaTCxXsE2NBJ9VmlE7ye2htVNZmyEDaL9PAbJO7DbG3TqZNmMtWfTyQNtbf9Xpe+Sbd9LxkLYNTbVzLVlbU1tyKDHD6jB06qTZ2CIppJGVt13cp+HvJiwRHWyTQ/IU7SC0OKbsffTH/vpMWCdMhj5CNJi+yu9njqu+6uquogNDCsThiDocsEkKeE/dpbhJzYnh9brnJsl1abzN5vS3d2HModkZddlYXxqJbJek7UNbbLv1ut7sXM5nTknT0kZvEAQCbly7/ViwaplKbLSO8inC7z7/e3Vx4uHerJH0HJmN/asvG1uVNOCHGtS15YJS2QueMRKuB0Vg+8bk24tqsLv9UlgoTQwTyf5e7HvRb8WqX1NY1jL344MkIUgyRfSYsEDrWPFaWexaxaCFMk9SKdTGME7+bFzzCRc7MGpx5AWFEr/dcIPC7yjRN+exemaZMqWXmCDEOfxU2zCxUfOTP1pMiK63SeCJCtp2xbU4Wg/uWBgAAAAAAAAAAAAAAAADclH8ANA5+us6UEA0AAAAASUVORK5CYII=;" vertex="1" parent="1">
                    <mxGeometry x="278.92" y="305" width="162.16" height="85.26" as="geometry"/>
                </mxCell>
                <mxCell id="9" value="Database" style="shape=image;verticalLabelPosition=bottom;labelBackgroundColor=#ffffff;verticalAlign=top;aspect=fixed;imageAspect=0;image=data:image/jpeg,/9j/4AAQSkZJRgABAQAAAQABAAD/2wCEAAkGBw4QDxAODQ0NDQ0NDQ4NDw0NEBANDw0NFREYFhcRFhUYHSggGCYmHR8TIzEiJykrLy4uFx8zODMsPygtMSsBCgoKDg0OFxAPFy0dHiU2LS03KystKy03Ky0rLy0tKy03Ky0uLS03NzctKystLSstKy0rLS0tLS0rLSstNy0tLf/AABEIAOEA4QMBIgACEQEDEQH/xAAbAAEAAgMBAQAAAAAAAAAAAAAAAgMEBgcBBf/EADsQAQACAQEDBwcLBAMAAAAAAAABAgMEBRExBhITIUFRcSJSU2GSsdEjMjNCQ3JzgZGhsiQ0k8EUdPD/xAAaAQEAAwEBAQAAAAAAAAAAAAAAAQIDBgQF/8QAJhEBAAIABAUEAwAAAAAAAAAAAAECAxESMQQTFUFSBSGh4TJRYf/aAAwDAQACEQMRAD8A5MAAAAAAAAAAAAAAAAAAAAAAAAAAAAAAAAAAAAAAAAAAMzZ+zNRqJmNPhvk5vGY6q19U2nqebQ2bn08xXPivjmeE23TW3hMdUmanMrq05+/6YgAuAAAAAAAAAAAAAAAAAAAAAAAAM3ZGzMmqzVw4o67ddrTwx07bSxcGG17VpSs2ve0VrWONpnsdX5M7Ero8PN6rZr7rZbx2z5seqETOTx8bxUYFPbedmds3Q49PirhxRupSPztPbae+ZYvKbS1y6PPW8RPNxXyVnzb1rMxMPqMPbP8Abaj/AK+b+Esu7m8O9uZFs/fNxkIGzsAAAAAAAAAAAAAAAAAAAAAAAG38h+T3S2jVZ6/JUn5Ksx9JePreEfvPgiZyY4+NXBpNrPr8iOT3Q1jU56/L5K+RWeOLHP8Auf24d7bAZTOblcfGtjXm9hibX/ts/wCBl/hLLYu1f7fP+Bl/hIph/lDi8BA2dmAAAAAAAAAAAAAAAAAAAAAy9l7OyanLXDijyrT12nhSvbafARa0VjOWfyX2FbWZd0764Me6ct4/akT3y6rix1pWKUrFaViK1rHVFYjhEMfZWzsemw1w4o8mvGZ43t22llspnNy/G8VOPf22jYAQ8Qxtp/QZvwMv8JZLH2j9Dm/ByfxkXp+UOKRwevK8I8IetnZgAAAAAAAAAAAAAAAAAAAJYsdrWilKza1pitax1za08IdW5LbCro8XXunPk3TlvHZ3Uj1Q+VyH5PdFWNXnr8tePkqW+ypP1t3fMfpDb2dp7Of9R4zXPLpt3/oAq+SAAKNf9Dl/Cyfxlerzx5FvuW9wtWcpiXEK8I8Hrea6TF6LH7NVldHi9Fj9mrTU6PqNfFoW8dCrosXosXsV+C6uhw+hxexX4GpXqVfFzfeb3TaaDD6HF7Ffgups/B6DF/jr8DWr1Svi5Zvg3w6zXZ2D0GH/AB1+C2uzdP6DD/jp8DWjq1fFyEddz7D0mSN19NhnfHGtYpaPCa7paNyr5MTpflcM2vp7TzZ39dsVp4RM9sesi0S34f1DDxbadpa2As94AAAAAAAA2zkRye6a8anNHyGOfIrP2uSO3wj3/m+XyZ2JbWZub11w491st47I7Kx65dWwYa0rWmOsVpSsVrWOqK1jhClpfK9R4zlxy6bz8LAFHPAAAACGb5tvu29yaOX5tvuz7hMbtQrVdWqNKrq1S9sylSF1KvK1XUqM5lKlV1aoVhbWEM5lOsLawhWFtYFJTrCraGlrlw5MVo31yY7Vn9Oqf13L6wwdu7Qrp9PkzWmN8UmKR52SeqsR+fukhOHEzeNO7jkBEDZ2QAAAAAAbu7rnsjvkTxZObat92/mWrbd37p3iJ2dg2Hs2umwUw1iN8Rzslu2+SeMyz0ceSLVi1Z31tEWiY7YmOpJi43EtNrTNtwAUAAAAEcnCfCfck8vwnwn3CYavSq+tUKQurCXqmUqwurCFYW1hCkpVhbWEawsrApKdYW1hCsLawKSZL1rWbWmK1rE2taeqKxHGZcq5VbdnWZfJ3xp8czGKs9W/vyTHfP7Q+ry55Q9JadJgt8lSd2a9ftLx9SPVH7z4NPaVju+96dweiOZfft/ABZ9YAAAAAAABu3I/lVTHSNNqrc2terFmnhWvmW7vVLecWWt4i1LVvWeFqTFon84cQe1tMcJmPCZhWavmcR6ZTEtNqzlLuO43OIdNfz7+1J01/Pv7Uo0PP0efP4+3b9xucQ6a/n39qTpr+ff2pNB0efP4+3b9xucQ6a/n39qTpr+ff2pNB0efP4+3b9zy0dU+EuI9Nfz7+1KWPNfnR5d/nR9ae80In0iY99fx9ulUhdWEKwtrCr50p1hbWEKwtrCFZTrCysI1hZWBnKdYa1y15Q9BT/jYbf1GSvlWjjhxz2+M9ndx7n0eUW2a6PDN+q2W++uKk9tvOn1Q5VqM18l7ZMlpve9pta08ZtK1YfT9P4PmTzL7R8qwGjoAAAAAAAAAAAAAAAAAAB7XjHjHveECJ2dUqtrCFP8AS2sMXJ23TrC2sIVhbWBnKdYV67W48GK2bLO6lI3+uZ7Kx3zKyZiImZmIiImZmeqIiO1zTlVt6dXk5tJmNPimYxxw588OkmPd6kxGb08Jw0498u0bsDbO08mqzWzZOrf1UpxjHTsrH/uLBBq6atYrEVjYAFgAAAAAAAAAAAAAAAAAAkeSInZ1jHHVHhC6sKsPza/dj3L6sXJX3lOsLawhWHwOV23v+PTocNv6jJXjHHFjn63jPZ+qTCwrYt4rV8vltt/nb9Jgt5ETuzXr9aY+zie7v/RpwNIjJ1GBg1waRWoAlsAAAAAAAAAAAAAAAAAAAAPLcJ8HpIOs6aPIr92vuZFYYuzstb4cV6zvrbHSYn8oXavVUw47Zcs82lI3zPf3RHrlk5K0TNpjuxtu7WppMM5J3WyT5OKnn3+EdrmGp1F8l7ZMlpte8za1p7ZZO2dp31OWct+qPm0pv6sdOyPiwV4jJ0PB8LGDX3/KQBZ7AAAAAAAAAAAAAAAAAAAAAAAAH09l7d1Gmjm4rRNJnf0eSOdWJ747YQ2rtnUandGa8c2s74x0jm0ie/d2/m+eGTPk4erXpjP9gA0AAAAAAAAAAAAAAAAAAAAAAAAAAAAAAAAAAAAAAAAAAAAAAAAAAAAAAAAAAAAAAAAAAAAAAAAf/9k=;" vertex="1" parent="1">
                    <mxGeometry x="550" y="232.5" width="85" height="85" as="geometry"/>
                </mxCell>
                <mxCell id="11" value="" style="shape=image;verticalLabelPosition=bottom;labelBackgroundColor=#ffffff;verticalAlign=top;aspect=fixed;imageAspect=0;image=data:image/png,iVBORw0KGgoAAAANSUhEUgAAARQAAAC2CAMAAAAvDYIaAAAAhFBMVEX///8AAADy8vKMjIyioqIjIyPMzMz8/Pz5+fk9PT1WVlb39/fp6env7+9ubm7b29tISEjCwsLi4uItLS1QUFCFhYVbW1unp6cbGxu8vLxzc3OysrLKysoQEBA3NzcYGBiWlpZpaWkwMDCtra2RkZFERER9fX2GhoZqamonJydhYWELCwtwKiDgAAAP+ElEQVR4nO1d2WKqOhQlgGE2zDIIoghW/P//uxmY9ZzSU3u1mvXQFqQYljt7ThQEDg4ODg4ODg4ODg4ODg4ODg4ODg4ODg4ODg4ODo5PYdSr5CCpjx7GcyGy8Q9ff/Qwngpb4OKfCKBHD+SZYIIyt3WNkzKBrwGMzHz0OJ4KYkZI2T96GE8G08ekJI8exbNBxbLiEZ2iGNwyd1B2ZAL5uq57WvDowTwLEhDhGeQd14Qb59GjeQooIaAIUon8ch89nmcAuoAJuFYRhBjMsOLzR/EGOhwnoL8vH6Xz3v7tdiBFxodO1R5kifXooT0QnUq5nFcKdlnkqJ9Hjx7ZA0EjH//oiIJU48ORdnnfKaTSiZPoWqU3oLaIjvETn5Ki7R3l0cN7DIhvMjLK+t4xFeHYHdrw0eN7AMzTaLrkoYQMfFIR7eGkJD56jP8vYK2PCJGhKQhGQljZbLOBlYNsGo8e6f+HTffYO/son6RGy/UC0RRCqHeiku1W592qKt4lA2V2nESF1HtwqwuIBYMcemGw3iJTJKpWhSAs38L9J17bJZHAFWq9SaFIJEkSxFqmF6/I+Tcw0Ya/S9LkipIw7Z4dmyBBYoGQ2pqm16dlu78Wkq2A0lJO6VRxZVltLXJvoutHDvjnAb0ZIbrs4injHeVqHc+uLTsTZaLmld05eczHLikgeVglvWVlrBrIscwmmoxeOME94uTgiHi2bE1XO4rXYgDlJmMZSjX+wFf74GWtM2J8eEmNXZGYaBATiWttml5S0LbOyWVad0aEcvG6fj/xzc4n7NO75KFTfGYN1morJ4ZhIlQGIQ2fo1MAwoeO9X8DsSOiCKEhkuIGnhBq2tAaoblpfK06M03jJ8cUR4f1mzQkAPAhoAjIWFRI+LMl55zQROte00QS7JQH0v5ypxcCKWTo4ET/duOYefBmT4lnZ1naX+y+DSmCsQM6USIGdIqaaNVBSkApuE7ds2Jq942S3WDuB/0L4tO9c8hYjxADlGARoao2LohWZd0HTjwxQqbgRve0wgY2eN6374LwrN/cYTRjAFBQq+yVbtHLx4VWCmdadesp5h2TtSp1kA7fvItZU0fyLiMagJlAK5COEmx/Cm5C29kuJcVJkTlz/wzTdOE2LpmsoZq9yfeUlNOWee9NioKFZDfnY4MjwSuXdlecCrDMYROvKe5RkAvc7uhbpPS5sXuTIkxTBjZxXKmLNq+uI7CRgoWkTOOpKaiaEvftkf+docOuMHV3UuBkyDkW73hFRHwuKQj4ZcP8mAUQW8EG+6NEEDThgZ1oJ6DLLlh/b/CO9zOkDDWvdYHFJJBVBI7kPFIEa6RCLLATrVW5+LbN/KEVi+qRzn6p9h1IEazoZ0gJ+plpYGvsy0kGMjJ3FAmbu5G8xHjqrIvFt2VqQ5qcIxnP/iC9Byls9PcnZYtV7Yo+Afb2yeerZaAgL2ihO6/01F/It12uSRHPI1Ksu5Di/AwpKohyRkrW60eqOj7ASFCY3q2/0E66uiaFKOD+b/GZSRH888Qme3pD3kS1BFkfHFjmSdf28tveIkWtqv7v+5ACf4iUztwzA7dnj5/CINiigRSF6tz6C37FLVIEdQienpuUzigXiGgU6omoWIEFYrkfWWDqzSVfiFVukjLCc5OirlpWQh3krOUiKRSbaBY0KgaSF8JoeZj8u0kRdLBzsF1InS4IRKaeufAIivFVmA7r/IXFDL+cFKxUSuzta+WK9c6mRrJpiOvpzKvG7hfC5F9OClMqmUS6lvI4iS2vBifhVhndWuznX5PiytNw6slJsVh6umtjuhy2+IFMc0hDGt0v6wut6XNS9NnykCcnRcAiktO6Dn4Qz1L2OSRlDrlbyKHGgkgeKI5dUCy+6ZyUajZ2Ssotv0dEW3izA15EcIvQVNX/HClHoNldvzVWGmoOmSubmnRwKsSOI/5dyjL4WHzTGSnuvMeSknLl96CjRvylizcPPcWNxnzM1SEZ3WggRazCpCgKeesQfD9FCEGRIJZ8I5lkCZSCKGA7E6d+m0BJgeYKaqqkyx0VSgpdHiMarouSJaQ4/uBZT8Os+Dxyuv0h/BhIQWCCb3cWWSvdLZio5FAwMxDDXMAfMtrLbVopJV6dYWFDtfimlJSd7/vVIc92rRCOcE0KrTxdgqJmvvVYp5OQ+owFQaK9eashfT+aPrDokjjAs4svUnADIYCx0bb8pdhvg6cDjnbSTbXxaMaJxF04Yha/shS1cwl7zEoBV6TEPRWWNhMVE9sAjekZSJTfoHKmOoX+Xxi71j060GSgGxbtGfXOwEwBLLAXZ21KWfOZrIo0uQo1tNz8dJJiH/JDtoAUNJo09O9RjE7C907JiBqreTNMSCG06ner+2Mt6CD6SXk7G08Sq6wF0QOQtghu2LD2+AcUVotrLL1OEUXRhdqnpKTjiUH+OR/sDJkXQ0luN7LkY1I24L4lIB+ERpvCDmMBBmvb9fAsFgM8bja2A37nLRSSxanmqfWxos9IIcd5NzlJA4w3pLhIKnYgwrGHwuKIFDzW813bQ7B8uvSjAusSSFhCicBfQGM0sO3Kb0e4XNPOTHLxqU4RneGRkikpVFccb71LT4qCVbB33wV+eJ6cWArbw1YRKrYfgkMWgWle3xDV5TshzEhBn5IyBpkv9qAtWR75nF5f2JFiHrCc3btPfg8yoa+bhoLqk6i5LuZaPBXAjZHdxIwUxbtM6+B/JSWfKtreB5HnlRfItB78283+GVt86/6tibrb/0Fp+Uu7mRZFybefwzrOrM/QqQqCqThQNvT25eUFmGUwcnAR+lytI8TVRT/d6n+UlyqVfyTFTZO28DcmZVxzlMbnp7W8e7cmFqAJ0v7utJQlRjcWsbtgYU/Jv5CCCubNe1ekCG7TD+4wj32IFqZvd+/2MwsU+7jzQh1LxopLXt9ar50tjAm/TgqibnpYIFWorkjBz9/Tcp65+aCx2j/u3alSAwt0wUNN8gUJ3OB5ZBDBUEcKV1o4f75MCtXzayYFyQ1SMAPJML7uFDm0u38BSzsAlgJ78IM6Q+07OqSBibw4XOcsnD9fJWVSAL1NCp5E+5mowP5dWOx2uLNaCbWh2O4j2oxuUzdyPIeMRFi4wcoXSaGlvqY7aiakKCNBLUcfmjDxaOkdblL5DWC/rBXPC5Zkn6x1EsNymypAt/pWfQUo3rJcxRdJoSLQO63a5PGO1cgOS9ektJ8S645angZbhMqeJGryWBGsDHg4UNyZXiewkukuS/+BJaSc+8N8cnk1MSX5OI0AJ6Q4IxWj0mjgzjsFbQH0x6yAKu7WsqR1N41VVQLnBaLCWjH+UpCnXQeD0NHskd0Kh0r1A1QN1vcQjdOwZB1b/xGxmm/3Lmj3A6zYXisq/YJ+j06oC9YxIGwHTBTiAsvHZHn3Z2vA3LE+9mVKviZPa26G3CN9QPJR1d0MCicCSDdkOHevtYlm7Z7r1hAoWbVdbvuLL4wdzczkrDM6KR7V7rPQS+xXJPrH8hYxRhdo7Y5MX3WrOw/5RFhppMXkNykdd7vRRgIluK0S9OSYKb3O8W1keXmF6hPYQGR0sNmpJYoY0xPeWCqlNiH9RyiHyYPdaPebZpnpB1sOx7WrnMcf+X52u27OTdaCarNTl3vFzC7Wbu0OIbUP/IRmUVC7nK5zT/ZCeP67k6TkQNsnaylYJ+tKA9H1bMOkRJqeEIRayDREu2zvIJOslomNl9+nPtNk2G9gOMvSLCCqNE2rzi3zfbendDfbXIPUaBWKFB3IYBWqAS+nsveKTCF2fe8nFie7cbzt7+vO3gHFG1kut5NHRTe68pHj3nl1o3gBJrZ5bX/njqz/cVjtcKy7XMVavfhq0wk2IMRTeMdUW0jKGp2VHiku/EkY1dJk0yvAB5thHyKSSFY7OyGhQXVZ77VDK1aBCHYpBJks4Fd6jrzeDW9c4eS90dYhEo7EO4sZ0Z4SZ9gupDPLCApi1PztNq8FQ8NxWW/uz5JJPWutAiviRPeaRMHu4xvtLomtTzxanHIpSRxjI1gTUvpVS4gs1r13pviJccSzZBwZ+ojo2qMFdeyzdJ6BKAri7t6JrmeGD1CfPV8l2G9cR0St1DAOBufUqYnqedml/VdwQW50pGR+c1lHoIIFnj36yFkxso3ggPP77NIUj52VFat4NKx2KY8uMjArb7JUmUACllWyIAhPGCUm2ZH1HkTl8TJsbSbHJLb9whqG3w7b6/trqedqlM3FMdegUOJ1Jg1zxpp0oL04RJL4bKtPOgvWQ8wIlA6+dDwPqTccQQL7bbQtxE6I2bmyKzukG2Ss1nJLVJ/xi4HseW8TBhUgFtyE5XEqGgzZeKpI3bLuS9xfN3Z0Xx01ybUxf/9MdS5JrKzjurNKAyvnZsgrvzpCbH+tGwv+scB8aNnASrzDdB3ulih+cjRgLU5ZqesIrDNMlkF8uc7Jd/dksUP9Hn6c8gF80fK77MoqtVeOK1UR2Lm0/DJk4yDJ5EbXGyS8JALihVjjUkIUeFgsVhvLkdYfozQ9JM3jf93J93W+3mNDE7VbcA1fktPYGaXT1S3mZf/Hrs3UBvY9NtZ5BmzBCrb1yA86ZZL9mJqp0bES/PpNaTGwfxPZL5OVMj2QFSSTsPNp/TrTgNT3gc39E1olyq+9Fov9wwt9u8doi5WWDJ36LbvtprqyOB/0gv10XYPF+vReKlHHuia1WYWYoLp28EuQUQbquNc3SmSTgOEvzSq/EYg+preqxoTkTY69k/3qTImBqqBalAZD3h88ms7Miy2JFdtmmpdL/qsnLBXVBmJVO1uWBtgalDRFerTbnWtaDFaVbtelLN93u2DRb93qbmi+RHYX+SA41sjJr7a1wjPF3GgkJMrASQcHtmE6qvPZVWdf93PNl0mhEWpgvUUIQYzfrH2VMqvkIECxds0KaZTIszpHAgTn/ZltDG64ZUKJqQJZPiVN/38H3wbRaDXdr/4aIesEmlQqYKyDzM7mvJyzlSIKsBGJT+N/yLQhwmzouh2DNqBaJsKzkKV6/Rz4Rels4+TXKxs3Abq8KSx0Oo5JiXS6aCqUfNcOijWoaYHErouA7rlY+Z5mN+u6rpMzlpN+OoW6T/t0fv23QWJavALPDjO1d8XJb9cX2J0Dg+eRcwSJv8/X1cf1NLuNm0u+fhfMIgIfpKEIBQl0Ybmvpo9IZOaIJQPd0D03EOnxa8TW2zXIAtKkEWtrGQpoP35KjbWnLaAkC2UHvkrkTAAD0sNpCfAYXj5//Bk8kqLRfrXR+RPQBkd/eVBukQljee1jDXqpguNnjBTUXluvkkW4AZTSrWhAVadO185oOqkDoWVZsDxkxcSF04q3KYYIKJalhj6919RBmaZOmpbBvlcrF7uWY+T+Ztf1n6EoFkrLQgr2OkYYJtKxkGP4zt9iyMHBwcHBwcHBwcHBwcHBwcHBwcHBwcHBwcHBwcHBwcHBwcHBwcFxF/wHaejeCPEKgx4AAAAASUVORK5CYII=;" vertex="1" parent="1">
                    <mxGeometry x="280" y="150" width="161.08" height="106.21" as="geometry"/>
                </mxCell>
            </root>
        </mxGraphModel>
    </diagram>
</mxfile>